<?xml version="1.0" standalone="no"?>
<!DOCTYPE svg PUBLIC "-//W3C//DTD SVG 20010904//EN"
 "http://www.w3.org/TR/2001/REC-SVG-20010904/DTD/svg10.dtd">
<svg version="1.0" xmlns="http://www.w3.org/2000/svg"
 width="1147.000000pt" height="1147.000000pt" viewBox="0 0 1147.000000 1147.000000"
 preserveAspectRatio="xMidYMid meet">
<metadata>
Created by potrace 1.11, written by Peter Selinger 2001-2013
</metadata>
<g transform="translate(0.000000,1147.000000) scale(0.100000,-0.100000)"
fill="#000000" stroke="none">
<path d="M5307 10994 c-1 -1 -47 -5 -102 -8 -114 -6 -189 -13 -225 -21 -14 -2
-50 -7 -80 -10 -30 -4 -113 -18 -185 -32 -71 -14 -141 -27 -155 -30 -67 -12
-312 -79 -455 -125 -750 -237 -1513 -655 -2175 -1192 -312 -254 -652 -593
-880 -876 -19 -24 -40 -48 -45 -54 -12 -13 -132 -174 -191 -256 -115 -161
-255 -392 -352 -585 -137 -273 -239 -538 -307 -800 -31 -120 -63 -262 -70
-310 -13 -91 -16 -115 -22 -150 -4 -22 -7 -51 -8 -65 -1 -14 -6 -70 -11 -125
-16 -202 -7 -535 21 -755 3 -19 7 -55 10 -80 76 -596 298 -1190 623 -1665 168
-246 307 -405 576 -660 213 -201 642 -497 929 -639 31 -16 57 -29 57 -30 0 0
16 -91 35 -201 45 -256 41 -235 81 -410 95 -415 187 -611 369 -790 215 -212
527 -349 1025 -450 63 -13 135 -26 160 -30 25 -3 52 -8 60 -10 8 -2 89 -14
180 -25 91 -11 181 -22 200 -25 19 -2 64 -7 100 -10 36 -3 85 -7 110 -10 104
-10 274 -22 570 -39 432 -26 1363 -27 1565 -1 17 2 68 7 115 10 91 7 362 39
470 56 787 123 1316 380 1604 779 120 166 229 440 261 656 4 21 10 55 15 74 4
19 11 57 15 83 3 27 8 56 9 65 2 10 7 43 11 76 8 71 15 107 20 116 2 4 42 28
87 55 110 63 227 141 374 247 522 376 952 850 1254 1383 42 74 167 329 200
410 18 44 39 94 45 110 42 101 134 411 150 504 3 19 7 37 9 40 2 3 7 24 10 46
6 36 12 70 22 129 2 10 6 44 10 75 3 31 8 65 10 76 21 111 21 620 0 733 -2 9
-7 48 -11 85 -3 37 -8 78 -11 90 -2 12 -7 40 -10 62 -7 59 -13 88 -40 220 -14
66 -27 131 -30 145 -24 121 -135 480 -191 620 -97 245 -201 471 -291 635 -82
148 -89 160 -148 255 -49 81 -191 294 -216 325 -4 6 -40 53 -79 105 -634 845
-1560 1499 -2619 1850 -208 69 -283 92 -415 126 -123 31 -106 27 -250 59 -111
25 -134 29 -190 39 -11 2 -31 7 -45 10 -14 3 -43 8 -65 11 -22 4 -67 11 -100
16 -33 5 -94 14 -135 20 -41 5 -87 12 -103 15 -15 2 -53 6 -85 9 -31 3 -72 7
-90 9 -18 3 -67 7 -110 11 -42 3 -101 8 -130 11 -150 12 -725 27 -735 18z"/>
</g>
</svg>
