<svg version="1.1" id="Layer_1" xmlns="http://www.w3.org/2000/svg" xmlns:xlink="http://www.w3.org/1999/xlink" x="0px" y="0px" width="259px" height="259px" viewBox="0 0 259 259" enable-background="new 0 0 259 259" xml:space="preserve">
	<g transform="translate(14,14)">
		<g transform="translate(63,0) scale(0.014,0.014)"><path d="M0,500h500V0C223.861,0.001,0,223.854,0,500z"/></g>
		<g transform="translate(70,0) scale(0.014,0.014)"><path d="M0,0v500h500C500,223.853,276.142,0,0,0z"/></g>
		<g transform="translate(98,0) scale(0.014,0.014)"><path d="M250,0c58.27,0,250,0,250,0s0,170.182,0,250c0,62.305,0,250,0,250s-174.219,0-250,0C111.881,500,0,388.021,0,250C0,111.963,111.881,0,250,0z"/></g>
		<g transform="translate(105,0) scale(0.014,0.014)"><path d="M0,0v500h500C500,223.853,276.142,0,0,0z"/></g>
		<g transform="translate(126,0) scale(0.014,0.014)"><path d="M500,250c0,58.266,0,250,0,250s-170.194,0-250-0.012c-62.324,0.012-250,0-250,0s0-174.241,0-249.994C0.006,111.931,111.929,0,249.994,0C388.064,0,500,111.93,500,250z"/></g>
		<g transform="translate(147,0) scale(0.014,0.014)"><path d="M500,250c0,58.266,0,250,0,250s-170.194,0-250-0.012c-62.324,0.012-250,0-250,0s0-174.241,0-249.994C0.006,111.931,111.929,0,249.994,0C388.064,0,500,111.93,500,250z"/></g>
		<g transform="translate(161,0) scale(0.014,0.014)"><path d="M250,0c138.077,0,250,111.93,250,250c0,138.077-111.923,250-250,250C111.93,500,0,388.077,0,250C0,111.93,111.93,0,250,0z"/></g>
		<g transform="translate(63,7) scale(0.014,0.014)"><path d="M500,500V0H0C0.001,276.142,223.853,500,500,500z"/></g>
		<g transform="translate(70,7) scale(0.07,0.07)"><rect width="100" height="100"/></g>
		<g transform="translate(77,7) scale(0.014,0.014)"><path d="M0,0v500h500C500,223.853,276.142,0,0,0z"/></g>
		<g transform="translate(105,7) scale(0.07,0.07)"><rect width="100" height="100"/></g>
		<g transform="translate(126,7) scale(0.07,0.07)"><rect width="100" height="100"/></g>
		<g transform="translate(147,7) scale(0.07,0.07)"><rect width="100" height="100"/></g>
		<g transform="translate(168,7) scale(0.014,0.014)"><path d="M500,250c0,58.266,0,250,0,250s-170.194,0-250-0.012c-62.324,0.012-250,0-250,0s0-174.241,0-249.994C0.006,111.931,111.929,0,249.994,0C388.064,0,500,111.93,500,250z"/></g>
		<g transform="translate(56,14) scale(0.014,0.014)"><path d="M500,250c0,58.266,0,250,0,250s-170.194,0-250-0.012c-62.324,0.012-250,0-250,0s0-174.241,0-249.994C0.006,111.931,111.929,0,249.994,0C388.064,0,500,111.93,500,250z"/></g>
		<g transform="translate(77,14) scale(0.014,0.014)"><path d="M0,250C0,191.729,0,0,0,0s170.201,0,250,0c62.324,0,250,0,250,0s0,174.261,0,250c0,138.064-111.936,250-250,250C111.929,500,0,388.064,0,250z"/></g>
		<g transform="translate(98,14) scale(0.014,0.014)"><path d="M250,0c58.27,0,250,0,250,0s0,170.182,0,250c0,62.305,0,250,0,250s-174.219,0-250,0C111.881,500,0,388.021,0,250C0,111.963,111.881,0,250,0z"/></g>
		<g transform="translate(105,14) scale(0.07,0.07)"><rect width="100" height="100"/></g>
		<g transform="translate(126,14) scale(0.07,0.07)"><rect width="100" height="100"/></g>
		<g transform="translate(147,14) scale(0.014,0.014)"><path d="M0,250C0,191.729,0,0,0,0s170.201,0,250,0c62.324,0,250,0,250,0s0,174.261,0,250c0,138.064-111.936,250-250,250C111.929,500,0,388.064,0,250z"/></g>
		<g transform="translate(168,14) scale(0.07,0.07)"><rect width="100" height="100"/></g>
		<g transform="translate(56,21) scale(0.07,0.07)"><rect width="100" height="100"/></g>
		<g transform="translate(84,21) scale(0.014,0.014)"><path d="M250,0c138.077,0,250,111.93,250,250c0,138.077-111.923,250-250,250C111.93,500,0,388.077,0,250C0,111.93,111.93,0,250,0z"/></g>
		<g transform="translate(105,21) scale(0.07,0.07)"><rect width="100" height="100"/></g>
		<g transform="translate(126,21) scale(0.07,0.07)"><rect width="100" height="100"/></g>
		<g transform="translate(133,21) scale(0.014,0.014)"><path d="M0,0v500h500C500,223.853,276.142,0,0,0z"/></g>
		<g transform="translate(168,21) scale(0.07,0.07)"><rect width="100" height="100"/></g>
		<g transform="translate(56,28) scale(0.07,0.07)"><rect width="100" height="100"/></g>
		<g transform="translate(63,28) scale(0.014,0.014)"><path d="M0,0v500h500C500,223.853,276.142,0,0,0z"/></g>
		<g transform="translate(98,28) scale(0.014,0.014)"><path d="M0,500h500V0C223.861,0.001,0,223.854,0,500z"/></g>
		<g transform="translate(105,28) scale(0.07,0.07)"><rect width="100" height="100"/></g>
		<g transform="translate(112,28) scale(0.014,0.014)"><path d="M250,500c-58.271,0-250,0-250,0s0-170.207,0-250C0,187.676,0,0,0,0s174.261,0,250,0c138.064,0,250,111.929,250,250C500,388.064,388.064,500,250,500z"/></g>
		<g transform="translate(126,28) scale(0.07,0.07)"><rect width="100" height="100"/></g>
		<g transform="translate(133,28) scale(0.07,0.07)"><rect width="100" height="100"/></g>
		<g transform="translate(140,28) scale(0.07,0.07)"><rect width="100" height="100"/></g>
		<g transform="translate(147,28) scale(0.014,0.014)"><path d="M250,500c-58.271,0-250,0-250,0s0-170.207,0-250C0,187.676,0,0,0,0s174.261,0,250,0c138.064,0,250,111.929,250,250C500,388.064,388.064,500,250,500z"/></g>
		<g transform="translate(168,28) scale(0.07,0.07)"><rect width="100" height="100"/></g>
		<g transform="translate(56,35) scale(0.07,0.07)"><rect width="100" height="100"/></g>
		<g transform="translate(63,35) scale(0.07,0.07)"><rect width="100" height="100"/></g>
		<g transform="translate(70,35) scale(0.07,0.07)"><rect width="100" height="100"/></g>
		<g transform="translate(77,35) scale(0.014,0.014)"><path d="M250,500c-58.271,0-250,0-250,0s0-170.207,0-250C0,187.676,0,0,0,0s174.261,0,250,0c138.064,0,250,111.929,250,250C500,388.064,388.064,500,250,500z"/></g>
		<g transform="translate(91,35) scale(0.014,0.014)"><path d="M250,0c58.27,0,250,0,250,0s0,170.182,0,250c0,62.305,0,250,0,250s-174.219,0-250,0C111.881,500,0,388.021,0,250C0,111.963,111.881,0,250,0z"/></g>
		<g transform="translate(98,35) scale(0.07,0.07)"><rect width="100" height="100"/></g>
		<g transform="translate(126,35) scale(0.07,0.07)"><rect width="100" height="100"/></g>
		<g transform="translate(133,35) scale(0.014,0.014)"><path d="M500,0H0v500C276.142,500,500,276.142,500,0z"/></g>
		<g transform="translate(154,35) scale(0.014,0.014)"><path d="M0,500h500V0C223.861,0.001,0,223.854,0,500z"/></g>
		<g transform="translate(161,35) scale(0.07,0.07)"><rect width="100" height="100"/></g>
		<g transform="translate(168,35) scale(0.07,0.07)"><rect width="100" height="100"/></g>
		<g transform="translate(56,42) scale(0.07,0.07)"><rect width="100" height="100"/></g>
		<g transform="translate(70,42) scale(0.07,0.07)"><rect width="100" height="100"/></g>
		<g transform="translate(84,42) scale(0.014,0.014)"><path d="M500,250c0,58.266,0,250,0,250s-170.194,0-250-0.012c-62.324,0.012-250,0-250,0s0-174.241,0-249.994C0.006,111.931,111.929,0,249.994,0C388.064,0,500,111.93,500,250z"/></g>
		<g transform="translate(98,42) scale(0.07,0.07)"><rect width="100" height="100"/></g>
		<g transform="translate(112,42) scale(0.014,0.014)"><path d="M500,250c0,58.266,0,250,0,250s-170.194,0-250-0.012c-62.324,0.012-250,0-250,0s0-174.241,0-249.994C0.006,111.931,111.929,0,249.994,0C388.064,0,500,111.93,500,250z"/></g>
		<g transform="translate(126,42) scale(0.07,0.07)"><rect width="100" height="100"/></g>
		<g transform="translate(140,42) scale(0.014,0.014)"><path d="M500,250c0,58.266,0,250,0,250s-170.194,0-250-0.012c-62.324,0.012-250,0-250,0s0-174.241,0-249.994C0.006,111.931,111.929,0,249.994,0C388.064,0,500,111.93,500,250z"/></g>
		<g transform="translate(154,42) scale(0.014,0.014)"><path d="M0,250C0,191.729,0,0,0,0s170.201,0,250,0c62.324,0,250,0,250,0s0,174.261,0,250c0,138.064-111.936,250-250,250C111.929,500,0,388.064,0,250z"/></g>
		<g transform="translate(168,42) scale(0.014,0.014)"><path d="M0,250C0,191.729,0,0,0,0s170.201,0,250,0c62.324,0,250,0,250,0s0,174.261,0,250c0,138.064-111.936,250-250,250C111.929,500,0,388.064,0,250z"/></g>
		<g transform="translate(56,49) scale(0.014,0.014)"><path d="M0,250C0,191.729,0,0,0,0s170.201,0,250,0c62.324,0,250,0,250,0s0,174.261,0,250c0,138.064-111.936,250-250,250C111.929,500,0,388.064,0,250z"/></g>
		<g transform="translate(70,49) scale(0.014,0.014)"><path d="M0,250C0,191.729,0,0,0,0s170.201,0,250,0c62.324,0,250,0,250,0s0,174.261,0,250c0,138.064-111.936,250-250,250C111.929,500,0,388.064,0,250z"/></g>
		<g transform="translate(84,49) scale(0.014,0.014)"><path d="M500,500V0H0C0.001,276.142,223.853,500,500,500z"/></g>
		<g transform="translate(91,49) scale(0.07,0.07)"><rect width="100" height="100"/></g>
		<g transform="translate(98,49) scale(0.014,0.014)"><path d="M500,0H0v500C276.142,500,500,276.142,500,0z"/></g>
		<g transform="translate(112,49) scale(0.014,0.014)"><path d="M500,500V0H0C0.001,276.142,223.853,500,500,500z"/></g>
		<g transform="translate(119,49) scale(0.07,0.07)"><rect width="100" height="100"/></g>
		<g transform="translate(126,49) scale(0.07,0.07)"><rect width="100" height="100"/></g>
		<g transform="translate(133,49) scale(0.07,0.07)"><rect width="100" height="100"/></g>
		<g transform="translate(140,49) scale(0.07,0.07)"><rect width="100" height="100"/></g>
		<g transform="translate(147,49) scale(0.014,0.014)"><path d="M250,500c-58.271,0-250,0-250,0s0-170.207,0-250C0,187.676,0,0,0,0s174.261,0,250,0c138.064,0,250,111.929,250,250C500,388.064,388.064,500,250,500z"/></g>
		<g transform="translate(0,56) scale(0.014,0.014)"><path d="M500,250c0,58.266,0,250,0,250s-170.194,0-250-0.012c-62.324,0.012-250,0-250,0s0-174.241,0-249.994C0.006,111.931,111.929,0,249.994,0C388.064,0,500,111.93,500,250z"/></g>
		<g transform="translate(14,56) scale(0.014,0.014)"><path d="M0,500h500V0C223.861,0.001,0,223.854,0,500z"/></g>
		<g transform="translate(21,56) scale(0.07,0.07)"><rect width="100" height="100"/></g>
		<g transform="translate(28,56) scale(0.07,0.07)"><rect width="100" height="100"/></g>
		<g transform="translate(35,56) scale(0.07,0.07)"><rect width="100" height="100"/></g>
		<g transform="translate(42,56) scale(0.014,0.014)"><path d="M250,500c-58.271,0-250,0-250,0s0-170.207,0-250C0,187.676,0,0,0,0s174.261,0,250,0c138.064,0,250,111.929,250,250C500,388.064,388.064,500,250,500z"/></g>
		<g transform="translate(63,56) scale(0.014,0.014)"><path d="M500,250c0,58.266,0,250,0,250s-170.194,0-250-0.012c-62.324,0.012-250,0-250,0s0-174.241,0-249.994C0.006,111.931,111.929,0,249.994,0C388.064,0,500,111.93,500,250z"/></g>
		<g transform="translate(91,56) scale(0.07,0.07)"><rect width="100" height="100"/></g>
		<g transform="translate(126,56) scale(0.07,0.07)"><rect width="100" height="100"/></g>
		<g transform="translate(133,56) scale(0.014,0.014)"><path d="M500,0H0v500C276.142,500,500,276.142,500,0z"/></g>
		<g transform="translate(154,56) scale(0.014,0.014)"><path d="M500,250c0,58.266,0,250,0,250s-170.194,0-250-0.012c-62.324,0.012-250,0-250,0s0-174.241,0-249.994C0.006,111.931,111.929,0,249.994,0C388.064,0,500,111.93,500,250z"/></g>
		<g transform="translate(168,56) scale(0.014,0.014)"><path d="M500,250c0,58.266,0,250,0,250s-170.194,0-250-0.012c-62.324,0.012-250,0-250,0s0-174.241,0-249.994C0.006,111.931,111.929,0,249.994,0C388.064,0,500,111.93,500,250z"/></g>
		<g transform="translate(182,56) scale(0.014,0.014)"><path d="M250,0c58.27,0,250,0,250,0s0,170.182,0,250c0,62.305,0,250,0,250s-174.219,0-250,0C111.881,500,0,388.021,0,250C0,111.963,111.881,0,250,0z"/></g>
		<g transform="translate(189,56) scale(0.07,0.07)"><rect width="100" height="100"/></g>
		<g transform="translate(196,56) scale(0.07,0.07)"><rect width="100" height="100"/></g>
		<g transform="translate(203,56) scale(0.07,0.07)"><rect width="100" height="100"/></g>
		<g transform="translate(210,56) scale(0.014,0.014)"><path d="M0,0v500h500C500,223.853,276.142,0,0,0z"/></g>
		<g transform="translate(0,63) scale(0.014,0.014)"><path d="M500,500V0H0C0.001,276.142,223.853,500,500,500z"/></g>
		<g transform="translate(7,63) scale(0.07,0.07)"><rect width="100" height="100"/></g>
		<g transform="translate(14,63) scale(0.014,0.014)"><path d="M500,0H0v500C276.142,500,500,276.142,500,0z"/></g>
		<g transform="translate(49,63) scale(0.014,0.014)"><path d="M500,250c0,58.266,0,250,0,250s-170.194,0-250-0.012c-62.324,0.012-250,0-250,0s0-174.241,0-249.994C0.006,111.931,111.929,0,249.994,0C388.064,0,500,111.93,500,250z"/></g>
		<g transform="translate(63,63) scale(0.07,0.07)"><rect width="100" height="100"/></g>
		<g transform="translate(77,63) scale(0.014,0.014)"><path d="M0,500h500V0C223.861,0.001,0,223.854,0,500z"/></g>
		<g transform="translate(84,63) scale(0.07,0.07)"><rect width="100" height="100"/></g>
		<g transform="translate(91,63) scale(0.07,0.07)"><rect width="100" height="100"/></g>
		<g transform="translate(105,63) scale(0.014,0.014)"><path d="M500,250c0,58.266,0,250,0,250s-170.194,0-250-0.012c-62.324,0.012-250,0-250,0s0-174.241,0-249.994C0.006,111.931,111.929,0,249.994,0C388.064,0,500,111.93,500,250z"/></g>
		<g transform="translate(119,63) scale(0.014,0.014)"><path d="M0,500h500V0C223.861,0.001,0,223.854,0,500z"/></g>
		<g transform="translate(126,63) scale(0.014,0.014)"><path d="M500,0H0v500C276.142,500,500,276.142,500,0z"/></g>
		<g transform="translate(154,63) scale(0.014,0.014)"><path d="M0,250C0,191.729,0,0,0,0s170.201,0,250,0c62.324,0,250,0,250,0s0,174.261,0,250c0,138.064-111.936,250-250,250C111.929,500,0,388.064,0,250z"/></g>
		<g transform="translate(168,63) scale(0.07,0.07)"><rect width="100" height="100"/></g>
		<g transform="translate(189,63) scale(0.07,0.07)"><rect width="100" height="100"/></g>
		<g transform="translate(210,63) scale(0.07,0.07)"><rect width="100" height="100"/></g>
		<g transform="translate(7,70) scale(0.07,0.07)"><rect width="100" height="100"/></g>
		<g transform="translate(21,70) scale(0.014,0.014)"><path d="M500,250c0,58.266,0,250,0,250s-170.194,0-250-0.012c-62.324,0.012-250,0-250,0s0-174.241,0-249.994C0.006,111.931,111.929,0,249.994,0C388.064,0,500,111.93,500,250z"/></g>
		<g transform="translate(42,70) scale(0.014,0.014)"><path d="M250,0c58.27,0,250,0,250,0s0,170.182,0,250c0,62.305,0,250,0,250s-174.219,0-250,0C111.881,500,0,388.021,0,250C0,111.963,111.881,0,250,0z"/></g>
		<g transform="translate(49,70) scale(0.07,0.07)"><rect width="100" height="100"/></g>
		<g transform="translate(56,70) scale(0.07,0.07)"><rect width="100" height="100"/></g>
		<g transform="translate(63,70) scale(0.07,0.07)"><rect width="100" height="100"/></g>
		<g transform="translate(70,70) scale(0.07,0.07)"><rect width="100" height="100"/></g>
		<g transform="translate(77,70) scale(0.014,0.014)"><path d="M500,0H0v500C276.142,500,500,276.142,500,0z"/></g>
		<g transform="translate(91,70) scale(0.07,0.07)"><rect width="100" height="100"/></g>
		<g transform="translate(98,70) scale(0.07,0.07)"><rect width="100" height="100"/></g>
		<g transform="translate(105,70) scale(0.07,0.07)"><rect width="100" height="100"/></g>
		<g transform="translate(119,70) scale(0.07,0.07)"><rect width="100" height="100"/></g>
		<g transform="translate(140,70) scale(0.014,0.014)"><path d="M500,250c0,58.266,0,250,0,250s-170.194,0-250-0.012c-62.324,0.012-250,0-250,0s0-174.241,0-249.994C0.006,111.931,111.929,0,249.994,0C388.064,0,500,111.93,500,250z"/></g>
		<g transform="translate(168,70) scale(0.07,0.07)"><rect width="100" height="100"/></g>
		<g transform="translate(182,70) scale(0.014,0.014)"><path d="M250,0c58.27,0,250,0,250,0s0,170.182,0,250c0,62.305,0,250,0,250s-174.219,0-250,0C111.881,500,0,388.021,0,250C0,111.963,111.881,0,250,0z"/></g>
		<g transform="translate(189,70) scale(0.07,0.07)"><rect width="100" height="100"/></g>
		<g transform="translate(196,70) scale(0.014,0.014)"><path d="M250,500c-58.271,0-250,0-250,0s0-170.207,0-250C0,187.676,0,0,0,0s174.261,0,250,0c138.064,0,250,111.929,250,250C500,388.064,388.064,500,250,500z"/></g>
		<g transform="translate(210,70) scale(0.07,0.07)"><rect width="100" height="100"/></g>
		<g transform="translate(7,77) scale(0.014,0.014)"><path d="M0,250C0,191.729,0,0,0,0s170.201,0,250,0c62.324,0,250,0,250,0s0,174.261,0,250c0,138.064-111.936,250-250,250C111.929,500,0,388.064,0,250z"/></g>
		<g transform="translate(21,77) scale(0.07,0.07)"><rect width="100" height="100"/></g>
		<g transform="translate(28,77) scale(0.07,0.07)"><rect width="100" height="100"/></g>
		<g transform="translate(35,77) scale(0.014,0.014)"><path d="M250,500c-58.271,0-250,0-250,0s0-170.207,0-250C0,187.676,0,0,0,0s174.261,0,250,0c138.064,0,250,111.929,250,250C500,388.064,388.064,500,250,500z"/></g>
		<g transform="translate(56,77) scale(0.07,0.07)"><rect width="100" height="100"/></g>
		<g transform="translate(63,77) scale(0.07,0.07)"><rect width="100" height="100"/></g>
		<g transform="translate(70,77) scale(0.07,0.07)"><rect width="100" height="100"/></g>
		<g transform="translate(84,77) scale(0.014,0.014)"><path d="M250,0c58.27,0,250,0,250,0s0,170.182,0,250c0,62.305,0,250,0,250s-174.219,0-250,0C111.881,500,0,388.021,0,250C0,111.963,111.881,0,250,0z"/></g>
		<g transform="translate(91,77) scale(0.014,0.014)"><path d="M500,0H0v500C276.142,500,500,276.142,500,0z"/></g>
		<g transform="translate(105,77) scale(0.07,0.07)"><rect width="100" height="100"/></g>
		<g transform="translate(119,77) scale(0.014,0.014)"><path d="M500,500V0H0C0.001,276.142,223.853,500,500,500z"/></g>
		<g transform="translate(126,77) scale(0.014,0.014)"><path d="M250,500c-58.271,0-250,0-250,0s0-170.207,0-250C0,187.676,0,0,0,0s174.261,0,250,0c138.064,0,250,111.929,250,250C500,388.064,388.064,500,250,500z"/></g>
		<g transform="translate(140,77) scale(0.014,0.014)"><path d="M500,500V0H0C0.001,276.142,223.853,500,500,500z"/></g>
		<g transform="translate(147,77) scale(0.014,0.014)"><path d="M0,0v500h500C500,223.853,276.142,0,0,0z"/></g>
		<g transform="translate(168,77) scale(0.014,0.014)"><path d="M0,250C0,191.729,0,0,0,0s170.201,0,250,0c62.324,0,250,0,250,0s0,174.261,0,250c0,138.064-111.936,250-250,250C111.929,500,0,388.064,0,250z"/></g>
		<g transform="translate(189,77) scale(0.07,0.07)"><rect width="100" height="100"/></g>
		<g transform="translate(210,77) scale(0.07,0.07)"><rect width="100" height="100"/></g>
		<g transform="translate(217,77) scale(0.014,0.014)"><path d="M250,500c-58.271,0-250,0-250,0s0-170.207,0-250C0,187.676,0,0,0,0s174.261,0,250,0c138.064,0,250,111.929,250,250C500,388.064,388.064,500,250,500z"/></g>
		<g transform="translate(21,84) scale(0.014,0.014)"><path d="M0,250C0,191.729,0,0,0,0s170.201,0,250,0c62.324,0,250,0,250,0s0,174.261,0,250c0,138.064-111.936,250-250,250C111.929,500,0,388.064,0,250z"/></g>
		<g transform="translate(42,84) scale(0.014,0.014)"><path d="M250,0c138.077,0,250,111.93,250,250c0,138.077-111.923,250-250,250C111.93,500,0,388.077,0,250C0,111.93,111.93,0,250,0z"/></g>
		<g transform="translate(56,84) scale(0.014,0.014)"><path d="M500,500V0H0C0.001,276.142,223.853,500,500,500z"/></g>
		<g transform="translate(63,84) scale(0.07,0.07)"><rect width="100" height="100"/></g>
		<g transform="translate(70,84) scale(0.014,0.014)"><path d="M500,0H0v500C276.142,500,500,276.142,500,0z"/></g>
		<g transform="translate(98,84) scale(0.014,0.014)"><path d="M250,0c58.27,0,250,0,250,0s0,170.182,0,250c0,62.305,0,250,0,250s-174.219,0-250,0C111.881,500,0,388.021,0,250C0,111.963,111.881,0,250,0z"/></g>
		<g transform="translate(105,84) scale(0.07,0.07)"><rect width="100" height="100"/></g>
		<g transform="translate(112,84) scale(0.014,0.014)"><path d="M250,500c-58.271,0-250,0-250,0s0-170.207,0-250C0,187.676,0,0,0,0s174.261,0,250,0c138.064,0,250,111.929,250,250C500,388.064,388.064,500,250,500z"/></g>
		<g transform="translate(147,84) scale(0.07,0.07)"><rect width="100" height="100"/></g>
		<g transform="translate(154,84) scale(0.014,0.014)"><path d="M0,0v500h500C500,223.853,276.142,0,0,0z"/></g>
		<g transform="translate(182,84) scale(0.014,0.014)"><path d="M250,0c58.27,0,250,0,250,0s0,170.182,0,250c0,62.305,0,250,0,250s-174.219,0-250,0C111.881,500,0,388.021,0,250C0,111.963,111.881,0,250,0z"/></g>
		<g transform="translate(189,84) scale(0.07,0.07)"><rect width="100" height="100"/></g>
		<g transform="translate(196,84) scale(0.014,0.014)"><path d="M250,500c-58.271,0-250,0-250,0s0-170.207,0-250C0,187.676,0,0,0,0s174.261,0,250,0c138.064,0,250,111.929,250,250C500,388.064,388.064,500,250,500z"/></g>
		<g transform="translate(210,84) scale(0.07,0.07)"><rect width="100" height="100"/></g>
		<g transform="translate(0,91) scale(0.014,0.014)"><path d="M0,500h500V0C223.861,0.001,0,223.854,0,500z"/></g>
		<g transform="translate(7,91) scale(0.014,0.014)"><path d="M250,500c-58.271,0-250,0-250,0s0-170.207,0-250C0,187.676,0,0,0,0s174.261,0,250,0c138.064,0,250,111.929,250,250C500,388.064,388.064,500,250,500z"/></g>
		<g transform="translate(63,91) scale(0.014,0.014)"><path d="M0,250C0,191.729,0,0,0,0s170.201,0,250,0c62.324,0,250,0,250,0s0,174.261,0,250c0,138.064-111.936,250-250,250C111.929,500,0,388.064,0,250z"/></g>
		<g transform="translate(84,91) scale(0.014,0.014)"><path d="M250,0c58.27,0,250,0,250,0s0,170.182,0,250c0,62.305,0,250,0,250s-174.219,0-250,0C111.881,500,0,388.021,0,250C0,111.963,111.881,0,250,0z"/></g>
		<g transform="translate(91,91) scale(0.014,0.014)"><path d="M250,500c-58.271,0-250,0-250,0s0-170.207,0-250C0,187.676,0,0,0,0s174.261,0,250,0c138.064,0,250,111.929,250,250C500,388.064,388.064,500,250,500z"/></g>
		<g transform="translate(105,91) scale(0.07,0.07)"><rect width="100" height="100"/></g>
		<g transform="translate(126,91) scale(0.014,0.014)"><path d="M0,500h500V0C223.861,0.001,0,223.854,0,500z"/></g>
		<g transform="translate(133,91) scale(0.014,0.014)"><path d="M250,500c-58.271,0-250,0-250,0s0-170.207,0-250C0,187.676,0,0,0,0s174.261,0,250,0c138.064,0,250,111.929,250,250C500,388.064,388.064,500,250,500z"/></g>
		<g transform="translate(147,91) scale(0.07,0.07)"><rect width="100" height="100"/></g>
		<g transform="translate(154,91) scale(0.07,0.07)"><rect width="100" height="100"/></g>
		<g transform="translate(161,91) scale(0.014,0.014)"><path d="M250,500c-58.271,0-250,0-250,0s0-170.207,0-250C0,187.676,0,0,0,0s174.261,0,250,0c138.064,0,250,111.929,250,250C500,388.064,388.064,500,250,500z"/></g>
		<g transform="translate(189,91) scale(0.07,0.07)"><rect width="100" height="100"/></g>
		<g transform="translate(210,91) scale(0.07,0.07)"><rect width="100" height="100"/></g>
		<g transform="translate(0,98) scale(0.07,0.07)"><rect width="100" height="100"/></g>
		<g transform="translate(28,98) scale(0.014,0.014)"><path d="M0,500h500V0C223.861,0.001,0,223.854,0,500z"/></g>
		<g transform="translate(35,98) scale(0.07,0.07)"><rect width="100" height="100"/></g>
		<g transform="translate(42,98) scale(0.014,0.014)"><path d="M250,500c-58.271,0-250,0-250,0s0-170.207,0-250C0,187.676,0,0,0,0s174.261,0,250,0c138.064,0,250,111.929,250,250C500,388.064,388.064,500,250,500z"/></g>
		<g transform="translate(56,98) scale(0.014,0.014)"><path d="M500,250c0,58.266,0,250,0,250s-170.194,0-250-0.012c-62.324,0.012-250,0-250,0s0-174.241,0-249.994C0.006,111.931,111.929,0,249.994,0C388.064,0,500,111.93,500,250z"/></g>
		<g transform="translate(70,98) scale(0.014,0.014)"><path d="M250,0c138.077,0,250,111.93,250,250c0,138.077-111.923,250-250,250C111.93,500,0,388.077,0,250C0,111.93,111.93,0,250,0z"/></g>
		<g transform="translate(98,98) scale(0.014,0.014)"><path d="M0,500h500V0C223.861,0.001,0,223.854,0,500z"/></g>
		<g transform="translate(105,98) scale(0.07,0.07)"><rect width="100" height="100"/></g>
		<g transform="translate(112,98) scale(0.014,0.014)"><path d="M250,500c-58.271,0-250,0-250,0s0-170.207,0-250C0,187.676,0,0,0,0s174.261,0,250,0c138.064,0,250,111.929,250,250C500,388.064,388.064,500,250,500z"/></g>
		<g transform="translate(126,98) scale(0.07,0.07)"><rect width="100" height="100"/></g>
		<g transform="translate(140,98) scale(0.014,0.014)"><path d="M250,0c58.27,0,250,0,250,0s0,170.182,0,250c0,62.305,0,250,0,250s-174.219,0-250,0C111.881,500,0,388.021,0,250C0,111.963,111.881,0,250,0z"/></g>
		<g transform="translate(147,98) scale(0.014,0.014)"><path d="M500,0H0v500C276.142,500,500,276.142,500,0z"/></g>
		<g transform="translate(168,98) scale(0.014,0.014)"><path d="M0,500h500V0C223.861,0.001,0,223.854,0,500z"/></g>
		<g transform="translate(175,98) scale(0.014,0.014)"><path d="M0,0v500h500C500,223.853,276.142,0,0,0z"/></g>
		<g transform="translate(189,98) scale(0.07,0.07)"><rect width="100" height="100"/></g>
		<g transform="translate(210,98) scale(0.07,0.07)"><rect width="100" height="100"/></g>
		<g transform="translate(0,105) scale(0.07,0.07)"><rect width="100" height="100"/></g>
		<g transform="translate(7,105) scale(0.07,0.07)"><rect width="100" height="100"/></g>
		<g transform="translate(14,105) scale(0.07,0.07)"><rect width="100" height="100"/></g>
		<g transform="translate(21,105) scale(0.07,0.07)"><rect width="100" height="100"/></g>
		<g transform="translate(28,105) scale(0.07,0.07)"><rect width="100" height="100"/></g>
		<g transform="translate(35,105) scale(0.014,0.014)"><path d="M500,0H0v500C276.142,500,500,276.142,500,0z"/></g>
		<g transform="translate(49,105) scale(0.014,0.014)"><path d="M0,500h500V0C223.861,0.001,0,223.854,0,500z"/></g>
		<g transform="translate(56,105) scale(0.014,0.014)"><path d="M500,0H0v500C276.142,500,500,276.142,500,0z"/></g>
		<g transform="translate(77,105) scale(0.014,0.014)"><path d="M250,0c58.27,0,250,0,250,0s0,170.182,0,250c0,62.305,0,250,0,250s-174.219,0-250,0C111.881,500,0,388.021,0,250C0,111.963,111.881,0,250,0z"/></g>
		<g transform="translate(84,105) scale(0.014,0.014)"><path d="M250,500c-58.271,0-250,0-250,0s0-170.207,0-250C0,187.676,0,0,0,0s174.261,0,250,0c138.064,0,250,111.929,250,250C500,388.064,388.064,500,250,500z"/></g>
		<g transform="translate(98,105) scale(0.07,0.07)"><rect width="100" height="100"/></g>
		<g transform="translate(105,105) scale(0.07,0.07)"><rect width="100" height="100"/></g>
		<g transform="translate(126,105) scale(0.07,0.07)"><rect width="100" height="100"/></g>
		<g transform="translate(133,105) scale(0.014,0.014)"><path d="M0,0v500h500C500,223.853,276.142,0,0,0z"/></g>
		<g transform="translate(168,105) scale(0.07,0.07)"><rect width="100" height="100"/></g>
		<g transform="translate(175,105) scale(0.07,0.07)"><rect width="100" height="100"/></g>
		<g transform="translate(189,105) scale(0.07,0.07)"><rect width="100" height="100"/></g>
		<g transform="translate(210,105) scale(0.07,0.07)"><rect width="100" height="100"/></g>
		<g transform="translate(0,112) scale(0.07,0.07)"><rect width="100" height="100"/></g>
		<g transform="translate(14,112) scale(0.07,0.07)"><rect width="100" height="100"/></g>
		<g transform="translate(42,112) scale(0.014,0.014)"><path d="M250,0c58.27,0,250,0,250,0s0,170.182,0,250c0,62.305,0,250,0,250s-174.219,0-250,0C111.881,500,0,388.021,0,250C0,111.963,111.881,0,250,0z"/></g>
		<g transform="translate(49,112) scale(0.07,0.07)"><rect width="100" height="100"/></g>
		<g transform="translate(63,112) scale(0.014,0.014)"><path d="M500,250c0,58.266,0,250,0,250s-170.194,0-250-0.012c-62.324,0.012-250,0-250,0s0-174.241,0-249.994C0.006,111.931,111.929,0,249.994,0C388.064,0,500,111.93,500,250z"/></g>
		<g transform="translate(91,112) scale(0.014,0.014)"><path d="M0,500h500V0C223.861,0.001,0,223.854,0,500z"/></g>
		<g transform="translate(98,112) scale(0.07,0.07)"><rect width="100" height="100"/></g>
		<g transform="translate(105,112) scale(0.07,0.07)"><rect width="100" height="100"/></g>
		<g transform="translate(112,112) scale(0.014,0.014)"><path d="M250,500c-58.271,0-250,0-250,0s0-170.207,0-250C0,187.676,0,0,0,0s174.261,0,250,0c138.064,0,250,111.929,250,250C500,388.064,388.064,500,250,500z"/></g>
		<g transform="translate(126,112) scale(0.014,0.014)"><path d="M500,500V0H0C0.001,276.142,223.853,500,500,500z"/></g>
		<g transform="translate(133,112) scale(0.014,0.014)"><path d="M500,0H0v500C276.142,500,500,276.142,500,0z"/></g>
		<g transform="translate(147,112) scale(0.014,0.014)"><path d="M500,250c0,58.266,0,250,0,250s-170.194,0-250-0.012c-62.324,0.012-250,0-250,0s0-174.241,0-249.994C0.006,111.931,111.929,0,249.994,0C388.064,0,500,111.93,500,250z"/></g>
		<g transform="translate(161,112) scale(0.014,0.014)"><path d="M250,0c58.27,0,250,0,250,0s0,170.182,0,250c0,62.305,0,250,0,250s-174.219,0-250,0C111.881,500,0,388.021,0,250C0,111.963,111.881,0,250,0z"/></g>
		<g transform="translate(168,112) scale(0.07,0.07)"><rect width="100" height="100"/></g>
		<g transform="translate(175,112) scale(0.07,0.07)"><rect width="100" height="100"/></g>
		<g transform="translate(182,112) scale(0.07,0.07)"><rect width="100" height="100"/></g>
		<g transform="translate(189,112) scale(0.07,0.07)"><rect width="100" height="100"/></g>
		<g transform="translate(203,112) scale(0.014,0.014)"><path d="M0,500h500V0C223.861,0.001,0,223.854,0,500z"/></g>
		<g transform="translate(210,112) scale(0.07,0.07)"><rect width="100" height="100"/></g>
		<g transform="translate(0,119) scale(0.07,0.07)"><rect width="100" height="100"/></g>
		<g transform="translate(7,119) scale(0.07,0.07)"><rect width="100" height="100"/></g>
		<g transform="translate(14,119) scale(0.07,0.07)"><rect width="100" height="100"/></g>
		<g transform="translate(35,119) scale(0.014,0.014)"><path d="M250,0c138.077,0,250,111.93,250,250c0,138.077-111.923,250-250,250C111.93,500,0,388.077,0,250C0,111.93,111.93,0,250,0z"/></g>
		<g transform="translate(49,119) scale(0.014,0.014)"><path d="M500,500V0H0C0.001,276.142,223.853,500,500,500z"/></g>
		<g transform="translate(56,119) scale(0.07,0.07)"><rect width="100" height="100"/></g>
		<g transform="translate(63,119) scale(0.07,0.07)"><rect width="100" height="100"/></g>
		<g transform="translate(84,119) scale(0.014,0.014)"><path d="M250,0c58.27,0,250,0,250,0s0,170.182,0,250c0,62.305,0,250,0,250s-174.219,0-250,0C111.881,500,0,388.021,0,250C0,111.963,111.881,0,250,0z"/></g>
		<g transform="translate(91,119) scale(0.07,0.07)"><rect width="100" height="100"/></g>
		<g transform="translate(105,119) scale(0.014,0.014)"><path d="M0,250C0,191.729,0,0,0,0s170.201,0,250,0c62.324,0,250,0,250,0s0,174.261,0,250c0,138.064-111.936,250-250,250C111.929,500,0,388.064,0,250z"/></g>
		<g transform="translate(140,119) scale(0.014,0.014)"><path d="M250,0c58.27,0,250,0,250,0s0,170.182,0,250c0,62.305,0,250,0,250s-174.219,0-250,0C111.881,500,0,388.021,0,250C0,111.963,111.881,0,250,0z"/></g>
		<g transform="translate(147,119) scale(0.07,0.07)"><rect width="100" height="100"/></g>
		<g transform="translate(168,119) scale(0.07,0.07)"><rect width="100" height="100"/></g>
		<g transform="translate(189,119) scale(0.07,0.07)"><rect width="100" height="100"/></g>
		<g transform="translate(203,119) scale(0.014,0.014)"><path d="M500,500V0H0C0.001,276.142,223.853,500,500,500z"/></g>
		<g transform="translate(210,119) scale(0.07,0.07)"><rect width="100" height="100"/></g>
		<g transform="translate(0,126) scale(0.07,0.07)"><rect width="100" height="100"/></g>
		<g transform="translate(7,126) scale(0.07,0.07)"><rect width="100" height="100"/></g>
		<g transform="translate(14,126) scale(0.014,0.014)"><path d="M500,0H0v500C276.142,500,500,276.142,500,0z"/></g>
		<g transform="translate(42,126) scale(0.014,0.014)"><path d="M250,0c138.077,0,250,111.93,250,250c0,138.077-111.923,250-250,250C111.93,500,0,388.077,0,250C0,111.93,111.93,0,250,0z"/></g>
		<g transform="translate(63,126) scale(0.014,0.014)"><path d="M500,500V0H0C0.001,276.142,223.853,500,500,500z"/></g>
		<g transform="translate(70,126) scale(0.014,0.014)"><path d="M0,0v500h500C500,223.853,276.142,0,0,0z"/></g>
		<g transform="translate(91,126) scale(0.014,0.014)"><path d="M500,500V0H0C0.001,276.142,223.853,500,500,500z"/></g>
		<g transform="translate(98,126) scale(0.014,0.014)"><path d="M250,500c-58.271,0-250,0-250,0s0-170.207,0-250C0,187.676,0,0,0,0s174.261,0,250,0c138.064,0,250,111.929,250,250C500,388.064,388.064,500,250,500z"/></g>
		<g transform="translate(112,126) scale(0.014,0.014)"><path d="M250,0c138.077,0,250,111.93,250,250c0,138.077-111.923,250-250,250C111.93,500,0,388.077,0,250C0,111.93,111.93,0,250,0z"/></g>
		<g transform="translate(126,126) scale(0.014,0.014)"><path d="M250,0c58.27,0,250,0,250,0s0,170.182,0,250c0,62.305,0,250,0,250s-174.219,0-250,0C111.881,500,0,388.021,0,250C0,111.963,111.881,0,250,0z"/></g>
		<g transform="translate(133,126) scale(0.014,0.014)"><path d="M250,500c-58.271,0-250,0-250,0s0-170.207,0-250C0,187.676,0,0,0,0s174.261,0,250,0c138.064,0,250,111.929,250,250C500,388.064,388.064,500,250,500z"/></g>
		<g transform="translate(147,126) scale(0.07,0.07)"><rect width="100" height="100"/></g>
		<g transform="translate(154,126) scale(0.014,0.014)"><path d="M250,500c-58.271,0-250,0-250,0s0-170.207,0-250C0,187.676,0,0,0,0s174.261,0,250,0c138.064,0,250,111.929,250,250C500,388.064,388.064,500,250,500z"/></g>
		<g transform="translate(168,126) scale(0.07,0.07)"><rect width="100" height="100"/></g>
		<g transform="translate(175,126) scale(0.014,0.014)"><path d="M0,0v500h500C500,223.853,276.142,0,0,0z"/></g>
		<g transform="translate(189,126) scale(0.07,0.07)"><rect width="100" height="100"/></g>
		<g transform="translate(210,126) scale(0.07,0.07)"><rect width="100" height="100"/></g>
		<g transform="translate(0,133) scale(0.014,0.014)"><path d="M500,500V0H0C0.001,276.142,223.853,500,500,500z"/></g>
		<g transform="translate(7,133) scale(0.07,0.07)"><rect width="100" height="100"/></g>
		<g transform="translate(21,133) scale(0.014,0.014)"><path d="M250,0c138.077,0,250,111.93,250,250c0,138.077-111.923,250-250,250C111.93,500,0,388.077,0,250C0,111.93,111.93,0,250,0z"/></g>
		<g transform="translate(49,133) scale(0.014,0.014)"><path d="M500,250c0,58.266,0,250,0,250s-170.194,0-250-0.012c-62.324,0.012-250,0-250,0s0-174.241,0-249.994C0.006,111.931,111.929,0,249.994,0C388.064,0,500,111.93,500,250z"/></g>
		<g transform="translate(70,133) scale(0.014,0.014)"><path d="M0,250C0,191.729,0,0,0,0s170.201,0,250,0c62.324,0,250,0,250,0s0,174.261,0,250c0,138.064-111.936,250-250,250C111.929,500,0,388.064,0,250z"/></g>
		<g transform="translate(84,133) scale(0.014,0.014)"><path d="M500,250c0,58.266,0,250,0,250s-170.194,0-250-0.012c-62.324,0.012-250,0-250,0s0-174.241,0-249.994C0.006,111.931,111.929,0,249.994,0C388.064,0,500,111.93,500,250z"/></g>
		<g transform="translate(105,133) scale(0.014,0.014)"><path d="M500,250c0,58.266,0,250,0,250s-170.194,0-250-0.012c-62.324,0.012-250,0-250,0s0-174.241,0-249.994C0.006,111.931,111.929,0,249.994,0C388.064,0,500,111.93,500,250z"/></g>
		<g transform="translate(147,133) scale(0.07,0.07)"><rect width="100" height="100"/></g>
		<g transform="translate(168,133) scale(0.07,0.07)"><rect width="100" height="100"/></g>
		<g transform="translate(175,133) scale(0.07,0.07)"><rect width="100" height="100"/></g>
		<g transform="translate(182,133) scale(0.07,0.07)"><rect width="100" height="100"/></g>
		<g transform="translate(189,133) scale(0.07,0.07)"><rect width="100" height="100"/></g>
		<g transform="translate(196,133) scale(0.014,0.014)"><path d="M250,500c-58.271,0-250,0-250,0s0-170.207,0-250C0,187.676,0,0,0,0s174.261,0,250,0c138.064,0,250,111.929,250,250C500,388.064,388.064,500,250,500z"/></g>
		<g transform="translate(210,133) scale(0.07,0.07)"><rect width="100" height="100"/></g>
		<g transform="translate(7,140) scale(0.07,0.07)"><rect width="100" height="100"/></g>
		<g transform="translate(14,140) scale(0.014,0.014)"><path d="M250,500c-58.271,0-250,0-250,0s0-170.207,0-250C0,187.676,0,0,0,0s174.261,0,250,0c138.064,0,250,111.929,250,250C500,388.064,388.064,500,250,500z"/></g>
		<g transform="translate(28,140) scale(0.014,0.014)"><path d="M0,500h500V0C223.861,0.001,0,223.854,0,500z"/></g>
		<g transform="translate(35,140) scale(0.07,0.07)"><rect width="100" height="100"/></g>
		<g transform="translate(42,140) scale(0.07,0.07)"><rect width="100" height="100"/></g>
		<g transform="translate(49,140) scale(0.014,0.014)"><path d="M500,0H0v500C276.142,500,500,276.142,500,0z"/></g>
		<g transform="translate(77,140) scale(0.014,0.014)"><path d="M250,0c58.27,0,250,0,250,0s0,170.182,0,250c0,62.305,0,250,0,250s-174.219,0-250,0C111.881,500,0,388.021,0,250C0,111.963,111.881,0,250,0z"/></g>
		<g transform="translate(84,140) scale(0.07,0.07)"><rect width="100" height="100"/></g>
		<g transform="translate(91,140) scale(0.014,0.014)"><path d="M0,0v500h500C500,223.853,276.142,0,0,0z"/></g>
		<g transform="translate(105,140) scale(0.07,0.07)"><rect width="100" height="100"/></g>
		<g transform="translate(126,140) scale(0.014,0.014)"><path d="M250,0c138.077,0,250,111.93,250,250c0,138.077-111.923,250-250,250C111.93,500,0,388.077,0,250C0,111.93,111.93,0,250,0z"/></g>
		<g transform="translate(140,140) scale(0.014,0.014)"><path d="M250,0c58.27,0,250,0,250,0s0,170.182,0,250c0,62.305,0,250,0,250s-174.219,0-250,0C111.881,500,0,388.021,0,250C0,111.963,111.881,0,250,0z"/></g>
		<g transform="translate(147,140) scale(0.07,0.07)"><rect width="100" height="100"/></g>
		<g transform="translate(154,140) scale(0.07,0.07)"><rect width="100" height="100"/></g>
		<g transform="translate(161,140) scale(0.07,0.07)"><rect width="100" height="100"/></g>
		<g transform="translate(168,140) scale(0.014,0.014)"><path d="M500,0H0v500C276.142,500,500,276.142,500,0z"/></g>
		<g transform="translate(189,140) scale(0.014,0.014)"><path d="M0,250C0,191.729,0,0,0,0s170.201,0,250,0c62.324,0,250,0,250,0s0,174.261,0,250c0,138.064-111.936,250-250,250C111.929,500,0,388.064,0,250z"/></g>
		<g transform="translate(210,140) scale(0.07,0.07)"><rect width="100" height="100"/></g>
		<g transform="translate(224,140) scale(0.014,0.014)"><path d="M250,0c138.077,0,250,111.93,250,250c0,138.077-111.923,250-250,250C111.93,500,0,388.077,0,250C0,111.93,111.93,0,250,0z"/></g>
		<g transform="translate(0,147) scale(0.014,0.014)"><path d="M0,500h500V0C223.861,0.001,0,223.854,0,500z"/></g>
		<g transform="translate(7,147) scale(0.014,0.014)"><path d="M500,0H0v500C276.142,500,500,276.142,500,0z"/></g>
		<g transform="translate(21,147) scale(0.014,0.014)"><path d="M0,500h500V0C223.861,0.001,0,223.854,0,500z"/></g>
		<g transform="translate(28,147) scale(0.014,0.014)"><path d="M500,0H0v500C276.142,500,500,276.142,500,0z"/></g>
		<g transform="translate(70,147) scale(0.014,0.014)"><path d="M500,250c0,58.266,0,250,0,250s-170.194,0-250-0.012c-62.324,0.012-250,0-250,0s0-174.241,0-249.994C0.006,111.931,111.929,0,249.994,0C388.064,0,500,111.93,500,250z"/></g>
		<g transform="translate(84,147) scale(0.07,0.07)"><rect width="100" height="100"/></g>
		<g transform="translate(91,147) scale(0.07,0.07)"><rect width="100" height="100"/></g>
		<g transform="translate(105,147) scale(0.014,0.014)"><path d="M500,500V0H0C0.001,276.142,223.853,500,500,500z"/></g>
		<g transform="translate(112,147) scale(0.014,0.014)"><path d="M250,500c-58.271,0-250,0-250,0s0-170.207,0-250C0,187.676,0,0,0,0s174.261,0,250,0c138.064,0,250,111.929,250,250C500,388.064,388.064,500,250,500z"/></g>
		<g transform="translate(147,147) scale(0.07,0.07)"><rect width="100" height="100"/></g>
		<g transform="translate(175,147) scale(0.014,0.014)"><path d="M250,0c138.077,0,250,111.93,250,250c0,138.077-111.923,250-250,250C111.93,500,0,388.077,0,250C0,111.93,111.93,0,250,0z"/></g>
		<g transform="translate(210,147) scale(0.07,0.07)"><rect width="100" height="100"/></g>
		<g transform="translate(0,154) scale(0.07,0.07)"><rect width="100" height="100"/></g>
		<g transform="translate(14,154) scale(0.014,0.014)"><path d="M250,0c58.27,0,250,0,250,0s0,170.182,0,250c0,62.305,0,250,0,250s-174.219,0-250,0C111.881,500,0,388.021,0,250C0,111.963,111.881,0,250,0z"/></g>
		<g transform="translate(21,154) scale(0.07,0.07)"><rect width="100" height="100"/></g>
		<g transform="translate(42,154) scale(0.014,0.014)"><path d="M250,0c138.077,0,250,111.93,250,250c0,138.077-111.923,250-250,250C111.93,500,0,388.077,0,250C0,111.93,111.93,0,250,0z"/></g>
		<g transform="translate(56,154) scale(0.014,0.014)"><path d="M250,0c138.077,0,250,111.93,250,250c0,138.077-111.923,250-250,250C111.93,500,0,388.077,0,250C0,111.93,111.93,0,250,0z"/></g>
		<g transform="translate(70,154) scale(0.014,0.014)"><path d="M0,250C0,191.729,0,0,0,0s170.201,0,250,0c62.324,0,250,0,250,0s0,174.261,0,250c0,138.064-111.936,250-250,250C111.929,500,0,388.064,0,250z"/></g>
		<g transform="translate(84,154) scale(0.014,0.014)"><path d="M500,500V0H0C0.001,276.142,223.853,500,500,500z"/></g>
		<g transform="translate(91,154) scale(0.07,0.07)"><rect width="100" height="100"/></g>
		<g transform="translate(98,154) scale(0.014,0.014)"><path d="M250,500c-58.271,0-250,0-250,0s0-170.207,0-250C0,187.676,0,0,0,0s174.261,0,250,0c138.064,0,250,111.929,250,250C500,388.064,388.064,500,250,500z"/></g>
		<g transform="translate(126,154) scale(0.014,0.014)"><path d="M0,500h500V0C223.861,0.001,0,223.854,0,500z"/></g>
		<g transform="translate(133,154) scale(0.07,0.07)"><rect width="100" height="100"/></g>
		<g transform="translate(140,154) scale(0.07,0.07)"><rect width="100" height="100"/></g>
		<g transform="translate(147,154) scale(0.07,0.07)"><rect width="100" height="100"/></g>
		<g transform="translate(168,154) scale(0.014,0.014)"><path d="M250,0c138.077,0,250,111.93,250,250c0,138.077-111.923,250-250,250C111.93,500,0,388.077,0,250C0,111.93,111.93,0,250,0z"/></g>
		<g transform="translate(189,154) scale(0.014,0.014)"><path d="M0,500h500V0C223.861,0.001,0,223.854,0,500z"/></g>
		<g transform="translate(196,154) scale(0.014,0.014)"><path d="M0,0v500h500C500,223.853,276.142,0,0,0z"/></g>
		<g transform="translate(210,154) scale(0.014,0.014)"><path d="M0,250C0,191.729,0,0,0,0s170.201,0,250,0c62.324,0,250,0,250,0s0,174.261,0,250c0,138.064-111.936,250-250,250C111.929,500,0,388.064,0,250z"/></g>
		<g transform="translate(0,161) scale(0.07,0.07)"><rect width="100" height="100"/></g>
		<g transform="translate(21,161) scale(0.014,0.014)"><path d="M500,500V0H0C0.001,276.142,223.853,500,500,500z"/></g>
		<g transform="translate(28,161) scale(0.014,0.014)"><path d="M0,0v500h500C500,223.853,276.142,0,0,0z"/></g>
		<g transform="translate(91,161) scale(0.014,0.014)"><path d="M0,250C0,191.729,0,0,0,0s170.201,0,250,0c62.324,0,250,0,250,0s0,174.261,0,250c0,138.064-111.936,250-250,250C111.929,500,0,388.064,0,250z"/></g>
		<g transform="translate(112,161) scale(0.014,0.014)"><path d="M250,0c138.077,0,250,111.93,250,250c0,138.077-111.923,250-250,250C111.93,500,0,388.077,0,250C0,111.93,111.93,0,250,0z"/></g>
		<g transform="translate(126,161) scale(0.014,0.014)"><path d="M0,250C0,191.729,0,0,0,0s170.201,0,250,0c62.324,0,250,0,250,0s0,174.261,0,250c0,138.064-111.936,250-250,250C111.929,500,0,388.064,0,250z"/></g>
		<g transform="translate(147,161) scale(0.07,0.07)"><rect width="100" height="100"/></g>
		<g transform="translate(175,161) scale(0.014,0.014)"><path d="M500,250c0,58.266,0,250,0,250s-170.194,0-250-0.012c-62.324,0.012-250,0-250,0s0-174.241,0-249.994C0.006,111.931,111.929,0,249.994,0C388.064,0,500,111.93,500,250z"/></g>
		<g transform="translate(189,161) scale(0.07,0.07)"><rect width="100" height="100"/></g>
		<g transform="translate(196,161) scale(0.07,0.07)"><rect width="100" height="100"/></g>
		<g transform="translate(224,161) scale(0.014,0.014)"><path d="M250,0c138.077,0,250,111.93,250,250c0,138.077-111.923,250-250,250C111.93,500,0,388.077,0,250C0,111.93,111.93,0,250,0z"/></g>
		<g transform="translate(0,168) scale(0.014,0.014)"><path d="M0,250C0,191.729,0,0,0,0s170.201,0,250,0c62.324,0,250,0,250,0s0,174.261,0,250c0,138.064-111.936,250-250,250C111.929,500,0,388.064,0,250z"/></g>
		<g transform="translate(14,168) scale(0.014,0.014)"><path d="M250,0c138.077,0,250,111.93,250,250c0,138.077-111.923,250-250,250C111.93,500,0,388.077,0,250C0,111.93,111.93,0,250,0z"/></g>
		<g transform="translate(28,168) scale(0.014,0.014)"><path d="M500,500V0H0C0.001,276.142,223.853,500,500,500z"/></g>
		<g transform="translate(35,168) scale(0.07,0.07)"><rect width="100" height="100"/></g>
		<g transform="translate(42,168) scale(0.07,0.07)"><rect width="100" height="100"/></g>
		<g transform="translate(49,168) scale(0.07,0.07)"><rect width="100" height="100"/></g>
		<g transform="translate(56,168) scale(0.07,0.07)"><rect width="100" height="100"/></g>
		<g transform="translate(63,168) scale(0.014,0.014)"><path d="M250,500c-58.271,0-250,0-250,0s0-170.207,0-250C0,187.676,0,0,0,0s174.261,0,250,0c138.064,0,250,111.929,250,250C500,388.064,388.064,500,250,500z"/></g>
		<g transform="translate(147,168) scale(0.07,0.07)"><rect width="100" height="100"/></g>
		<g transform="translate(168,168) scale(0.014,0.014)"><path d="M0,500h500V0C223.861,0.001,0,223.854,0,500z"/></g>
		<g transform="translate(175,168) scale(0.07,0.07)"><rect width="100" height="100"/></g>
		<g transform="translate(182,168) scale(0.07,0.07)"><rect width="100" height="100"/></g>
		<g transform="translate(189,168) scale(0.07,0.07)"><rect width="100" height="100"/></g>
		<g transform="translate(196,168) scale(0.07,0.07)"><rect width="100" height="100"/></g>
		<g transform="translate(203,168) scale(0.014,0.014)"><path d="M250,500c-58.271,0-250,0-250,0s0-170.207,0-250C0,187.676,0,0,0,0s174.261,0,250,0c138.064,0,250,111.929,250,250C500,388.064,388.064,500,250,500z"/></g>
		<g transform="translate(217,168) scale(0.014,0.014)"><path d="M500,250c0,58.266,0,250,0,250s-170.194,0-250-0.012c-62.324,0.012-250,0-250,0s0-174.241,0-249.994C0.006,111.931,111.929,0,249.994,0C388.064,0,500,111.93,500,250z"/></g>
		<g transform="translate(56,175) scale(0.014,0.014)"><path d="M0,250C0,191.729,0,0,0,0s170.201,0,250,0c62.324,0,250,0,250,0s0,174.261,0,250c0,138.064-111.936,250-250,250C111.929,500,0,388.064,0,250z"/></g>
		<g transform="translate(77,175) scale(0.014,0.014)"><path d="M500,250c0,58.266,0,250,0,250s-170.194,0-250-0.012c-62.324,0.012-250,0-250,0s0-174.241,0-249.994C0.006,111.931,111.929,0,249.994,0C388.064,0,500,111.93,500,250z"/></g>
		<g transform="translate(105,175) scale(0.014,0.014)"><path d="M250,0c58.27,0,250,0,250,0s0,170.182,0,250c0,62.305,0,250,0,250s-174.219,0-250,0C111.881,500,0,388.021,0,250C0,111.963,111.881,0,250,0z"/></g>
		<g transform="translate(112,175) scale(0.07,0.07)"><rect width="100" height="100"/></g>
		<g transform="translate(119,175) scale(0.014,0.014)"><path d="M0,0v500h500C500,223.853,276.142,0,0,0z"/></g>
		<g transform="translate(147,175) scale(0.07,0.07)"><rect width="100" height="100"/></g>
		<g transform="translate(168,175) scale(0.07,0.07)"><rect width="100" height="100"/></g>
		<g transform="translate(196,175) scale(0.07,0.07)"><rect width="100" height="100"/></g>
		<g transform="translate(210,175) scale(0.014,0.014)"><path d="M0,500h500V0C223.861,0.001,0,223.854,0,500z"/></g>
		<g transform="translate(217,175) scale(0.07,0.07)"><rect width="100" height="100"/></g>
		<g transform="translate(224,175) scale(0.014,0.014)"><path d="M250,500c-58.271,0-250,0-250,0s0-170.207,0-250C0,187.676,0,0,0,0s174.261,0,250,0c138.064,0,250,111.929,250,250C500,388.064,388.064,500,250,500z"/></g>
		<g transform="translate(63,182) scale(0.014,0.014)"><path d="M250,0c138.077,0,250,111.93,250,250c0,138.077-111.923,250-250,250C111.93,500,0,388.077,0,250C0,111.93,111.93,0,250,0z"/></g>
		<g transform="translate(77,182) scale(0.014,0.014)"><path d="M500,500V0H0C0.001,276.142,223.853,500,500,500z"/></g>
		<g transform="translate(84,182) scale(0.014,0.014)"><path d="M0,0v500h500C500,223.853,276.142,0,0,0z"/></g>
		<g transform="translate(119,182) scale(0.07,0.07)"><rect width="100" height="100"/></g>
		<g transform="translate(147,182) scale(0.07,0.07)"><rect width="100" height="100"/></g>
		<g transform="translate(154,182) scale(0.014,0.014)"><path d="M250,500c-58.271,0-250,0-250,0s0-170.207,0-250C0,187.676,0,0,0,0s174.261,0,250,0c138.064,0,250,111.929,250,250C500,388.064,388.064,500,250,500z"/></g>
		<g transform="translate(168,182) scale(0.07,0.07)"><rect width="100" height="100"/></g>
		<g transform="translate(182,182) scale(0.014,0.014)"><path d="M250,0c138.077,0,250,111.93,250,250c0,138.077-111.923,250-250,250C111.93,500,0,388.077,0,250C0,111.93,111.93,0,250,0z"/></g>
		<g transform="translate(196,182) scale(0.07,0.07)"><rect width="100" height="100"/></g>
		<g transform="translate(210,182) scale(0.07,0.07)"><rect width="100" height="100"/></g>
		<g transform="translate(217,182) scale(0.014,0.014)"><path d="M500,0H0v500C276.142,500,500,276.142,500,0z"/></g>
		<g transform="translate(56,189) scale(0.014,0.014)"><path d="M500,250c0,58.266,0,250,0,250s-170.194,0-250-0.012c-62.324,0.012-250,0-250,0s0-174.241,0-249.994C0.006,111.931,111.929,0,249.994,0C388.064,0,500,111.93,500,250z"/></g>
		<g transform="translate(70,189) scale(0.014,0.014)"><path d="M250,0c138.077,0,250,111.93,250,250c0,138.077-111.923,250-250,250C111.93,500,0,388.077,0,250C0,111.93,111.93,0,250,0z"/></g>
		<g transform="translate(84,189) scale(0.07,0.07)"><rect width="100" height="100"/></g>
		<g transform="translate(98,189) scale(0.014,0.014)"><path d="M250,0c58.27,0,250,0,250,0s0,170.182,0,250c0,62.305,0,250,0,250s-174.219,0-250,0C111.881,500,0,388.021,0,250C0,111.963,111.881,0,250,0z"/></g>
		<g transform="translate(105,189) scale(0.014,0.014)"><path d="M0,0v500h500C500,223.853,276.142,0,0,0z"/></g>
		<g transform="translate(119,189) scale(0.014,0.014)"><path d="M500,500V0H0C0.001,276.142,223.853,500,500,500z"/></g>
		<g transform="translate(126,189) scale(0.014,0.014)"><path d="M250,500c-58.271,0-250,0-250,0s0-170.207,0-250C0,187.676,0,0,0,0s174.261,0,250,0c138.064,0,250,111.929,250,250C500,388.064,388.064,500,250,500z"/></g>
		<g transform="translate(147,189) scale(0.07,0.07)"><rect width="100" height="100"/></g>
		<g transform="translate(161,189) scale(0.014,0.014)"><path d="M250,0c58.27,0,250,0,250,0s0,170.182,0,250c0,62.305,0,250,0,250s-174.219,0-250,0C111.881,500,0,388.021,0,250C0,111.963,111.881,0,250,0z"/></g>
		<g transform="translate(168,189) scale(0.07,0.07)"><rect width="100" height="100"/></g>
		<g transform="translate(196,189) scale(0.07,0.07)"><rect width="100" height="100"/></g>
		<g transform="translate(203,189) scale(0.07,0.07)"><rect width="100" height="100"/></g>
		<g transform="translate(210,189) scale(0.07,0.07)"><rect width="100" height="100"/></g>
		<g transform="translate(224,189) scale(0.014,0.014)"><path d="M250,0c138.077,0,250,111.93,250,250c0,138.077-111.923,250-250,250C111.93,500,0,388.077,0,250C0,111.93,111.93,0,250,0z"/></g>
		<g transform="translate(56,196) scale(0.07,0.07)"><rect width="100" height="100"/></g>
		<g transform="translate(77,196) scale(0.014,0.014)"><path d="M250,0c58.27,0,250,0,250,0s0,170.182,0,250c0,62.305,0,250,0,250s-174.219,0-250,0C111.881,500,0,388.021,0,250C0,111.963,111.881,0,250,0z"/></g>
		<g transform="translate(84,196) scale(0.07,0.07)"><rect width="100" height="100"/></g>
		<g transform="translate(91,196) scale(0.014,0.014)"><path d="M0,0v500h500C500,223.853,276.142,0,0,0z"/></g>
		<g transform="translate(105,196) scale(0.07,0.07)"><rect width="100" height="100"/></g>
		<g transform="translate(112,196) scale(0.014,0.014)"><path d="M250,500c-58.271,0-250,0-250,0s0-170.207,0-250C0,187.676,0,0,0,0s174.261,0,250,0c138.064,0,250,111.929,250,250C500,388.064,388.064,500,250,500z"/></g>
		<g transform="translate(147,196) scale(0.07,0.07)"><rect width="100" height="100"/></g>
		<g transform="translate(154,196) scale(0.014,0.014)"><path d="M250,500c-58.271,0-250,0-250,0s0-170.207,0-250C0,187.676,0,0,0,0s174.261,0,250,0c138.064,0,250,111.929,250,250C500,388.064,388.064,500,250,500z"/></g>
		<g transform="translate(168,196) scale(0.07,0.07)"><rect width="100" height="100"/></g>
		<g transform="translate(175,196) scale(0.07,0.07)"><rect width="100" height="100"/></g>
		<g transform="translate(182,196) scale(0.07,0.07)"><rect width="100" height="100"/></g>
		<g transform="translate(189,196) scale(0.07,0.07)"><rect width="100" height="100"/></g>
		<g transform="translate(196,196) scale(0.014,0.014)"><path d="M500,0H0v500C276.142,500,500,276.142,500,0z"/></g>
		<g transform="translate(210,196) scale(0.014,0.014)"><path d="M500,500V0H0C0.001,276.142,223.853,500,500,500z"/></g>
		<g transform="translate(217,196) scale(0.014,0.014)"><path d="M250,500c-58.271,0-250,0-250,0s0-170.207,0-250C0,187.676,0,0,0,0s174.261,0,250,0c138.064,0,250,111.929,250,250C500,388.064,388.064,500,250,500z"/></g>
		<g transform="translate(56,203) scale(0.07,0.07)"><rect width="100" height="100"/></g>
		<g transform="translate(63,203) scale(0.07,0.07)"><rect width="100" height="100"/></g>
		<g transform="translate(70,203) scale(0.014,0.014)"><path d="M250,500c-58.271,0-250,0-250,0s0-170.207,0-250C0,187.676,0,0,0,0s174.261,0,250,0c138.064,0,250,111.929,250,250C500,388.064,388.064,500,250,500z"/></g>
		<g transform="translate(84,203) scale(0.014,0.014)"><path d="M500,500V0H0C0.001,276.142,223.853,500,500,500z"/></g>
		<g transform="translate(91,203) scale(0.07,0.07)"><rect width="100" height="100"/></g>
		<g transform="translate(98,203) scale(0.07,0.07)"><rect width="100" height="100"/></g>
		<g transform="translate(105,203) scale(0.07,0.07)"><rect width="100" height="100"/></g>
		<g transform="translate(119,203) scale(0.014,0.014)"><path d="M250,0c58.27,0,250,0,250,0s0,170.182,0,250c0,62.305,0,250,0,250s-174.219,0-250,0C111.881,500,0,388.021,0,250C0,111.963,111.881,0,250,0z"/></g>
		<g transform="translate(126,203) scale(0.07,0.07)"><rect width="100" height="100"/></g>
		<g transform="translate(133,203) scale(0.014,0.014)"><path d="M250,500c-58.271,0-250,0-250,0s0-170.207,0-250C0,187.676,0,0,0,0s174.261,0,250,0c138.064,0,250,111.929,250,250C500,388.064,388.064,500,250,500z"/></g>
		<g transform="translate(147,203) scale(0.07,0.07)"><rect width="100" height="100"/></g>
		<g transform="translate(168,203) scale(0.014,0.014)"><path d="M0,250C0,191.729,0,0,0,0s170.201,0,250,0c62.324,0,250,0,250,0s0,174.261,0,250c0,138.064-111.936,250-250,250C111.929,500,0,388.064,0,250z"/></g>
		<g transform="translate(182,203) scale(0.014,0.014)"><path d="M500,500V0H0C0.001,276.142,223.853,500,500,500z"/></g>
		<g transform="translate(189,203) scale(0.07,0.07)"><rect width="100" height="100"/></g>
		<g transform="translate(203,203) scale(0.014,0.014)"><path d="M250,0c138.077,0,250,111.93,250,250c0,138.077-111.923,250-250,250C111.93,500,0,388.077,0,250C0,111.93,111.93,0,250,0z"/></g>
		<g transform="translate(224,203) scale(0.014,0.014)"><path d="M250,0c138.077,0,250,111.93,250,250c0,138.077-111.923,250-250,250C111.93,500,0,388.077,0,250C0,111.93,111.93,0,250,0z"/></g>
		<g transform="translate(56,210) scale(0.014,0.014)"><path d="M500,500V0H0C0.001,276.142,223.853,500,500,500z"/></g>
		<g transform="translate(63,210) scale(0.07,0.07)"><rect width="100" height="100"/></g>
		<g transform="translate(91,210) scale(0.07,0.07)"><rect width="100" height="100"/></g>
		<g transform="translate(105,210) scale(0.07,0.07)"><rect width="100" height="100"/></g>
		<g transform="translate(112,210) scale(0.014,0.014)"><path d="M250,500c-58.271,0-250,0-250,0s0-170.207,0-250C0,187.676,0,0,0,0s174.261,0,250,0c138.064,0,250,111.929,250,250C500,388.064,388.064,500,250,500z"/></g>
		<g transform="translate(147,210) scale(0.07,0.07)"><rect width="100" height="100"/></g>
		<g transform="translate(161,210) scale(0.014,0.014)"><path d="M250,0c138.077,0,250,111.93,250,250c0,138.077-111.923,250-250,250C111.93,500,0,388.077,0,250C0,111.93,111.93,0,250,0z"/></g>
		<g transform="translate(189,210) scale(0.07,0.07)"><rect width="100" height="100"/></g>
		<g transform="translate(63,217) scale(0.07,0.07)"><rect width="100" height="100"/></g>
		<g transform="translate(70,217) scale(0.07,0.07)"><rect width="100" height="100"/></g>
		<g transform="translate(77,217) scale(0.014,0.014)"><path d="M0,0v500h500C500,223.853,276.142,0,0,0z"/></g>
		<g transform="translate(91,217) scale(0.014,0.014)"><path d="M500,500V0H0C0.001,276.142,223.853,500,500,500z"/></g>
		<g transform="translate(98,217) scale(0.07,0.07)"><rect width="100" height="100"/></g>
		<g transform="translate(105,217) scale(0.07,0.07)"><rect width="100" height="100"/></g>
		<g transform="translate(126,217) scale(0.014,0.014)"><path d="M500,250c0,58.266,0,250,0,250s-170.194,0-250-0.012c-62.324,0.012-250,0-250,0s0-174.241,0-249.994C0.006,111.931,111.929,0,249.994,0C388.064,0,500,111.93,500,250z"/></g>
		<g transform="translate(147,217) scale(0.07,0.07)"><rect width="100" height="100"/></g>
		<g transform="translate(168,217) scale(0.014,0.014)"><path d="M250,0c138.077,0,250,111.93,250,250c0,138.077-111.923,250-250,250C111.93,500,0,388.077,0,250C0,111.93,111.93,0,250,0z"/></g>
		<g transform="translate(189,217) scale(0.07,0.07)"><rect width="100" height="100"/></g>
		<g transform="translate(203,217) scale(0.014,0.014)"><path d="M0,500h500V0C223.861,0.001,0,223.854,0,500z"/></g>
		<g transform="translate(210,217) scale(0.014,0.014)"><path d="M0,0v500h500C500,223.853,276.142,0,0,0z"/></g>
		<g transform="translate(224,217) scale(0.014,0.014)"><path d="M250,0c138.077,0,250,111.93,250,250c0,138.077-111.923,250-250,250C111.93,500,0,388.077,0,250C0,111.93,111.93,0,250,0z"/></g>
		<g transform="translate(56,224) scale(0.014,0.014)"><path d="M250,0c58.27,0,250,0,250,0s0,170.182,0,250c0,62.305,0,250,0,250s-174.219,0-250,0C111.881,500,0,388.021,0,250C0,111.963,111.881,0,250,0z"/></g>
		<g transform="translate(63,224) scale(0.07,0.07)"><rect width="100" height="100"/></g>
		<g transform="translate(70,224) scale(0.07,0.07)"><rect width="100" height="100"/></g>
		<g transform="translate(77,224) scale(0.014,0.014)"><path d="M500,0H0v500C276.142,500,500,276.142,500,0z"/></g>
		<g transform="translate(105,224) scale(0.014,0.014)"><path d="M0,250C0,191.729,0,0,0,0s170.201,0,250,0c62.324,0,250,0,250,0s0,174.261,0,250c0,138.064-111.936,250-250,250C111.929,500,0,388.064,0,250z"/></g>
		<g transform="translate(126,224) scale(0.014,0.014)"><path d="M0,250C0,191.729,0,0,0,0s170.201,0,250,0c62.324,0,250,0,250,0s0,174.261,0,250c0,138.064-111.936,250-250,250C111.929,500,0,388.064,0,250z"/></g>
		<g transform="translate(147,224) scale(0.014,0.014)"><path d="M0,250C0,191.729,0,0,0,0s170.201,0,250,0c62.324,0,250,0,250,0s0,174.261,0,250c0,138.064-111.936,250-250,250C111.929,500,0,388.064,0,250z"/></g>
		<g transform="translate(161,224) scale(0.014,0.014)"><path d="M250,0c138.077,0,250,111.93,250,250c0,138.077-111.923,250-250,250C111.93,500,0,388.077,0,250C0,111.93,111.93,0,250,0z"/></g>
		<g transform="translate(175,224) scale(0.014,0.014)"><path d="M250,0c138.077,0,250,111.93,250,250c0,138.077-111.923,250-250,250C111.93,500,0,388.077,0,250C0,111.93,111.93,0,250,0z"/></g>
		<g transform="translate(189,224) scale(0.014,0.014)"><path d="M0,250C0,191.729,0,0,0,0s170.201,0,250,0c62.324,0,250,0,250,0s0,174.261,0,250c0,138.064-111.936,250-250,250C111.929,500,0,388.064,0,250z"/></g>
		<g transform="translate(203,224) scale(0.014,0.014)"><path d="M500,500V0H0C0.001,276.142,223.853,500,500,500z"/></g>
		<g transform="translate(210,224) scale(0.014,0.014)"><path d="M500,0H0v500C276.142,500,500,276.142,500,0z"/></g>
		<g transform="translate(0,0) scale(0.48039215686275, 0.48039215686275)">
			<path style="fill:none;" d="M51,16c-19.299,0-35,15.701-35,35s15.701,35,35,35s35-15.701,35-35S70.299,16,51,16z"/>
			<path d="M51,1C23.387,1,1,23.387,1,51s22.387,50,50,50s50-22.387,50-50S78.613,1,51,1z M51,86c-19.299,0-35-15.701-35-35s15.701-35,35-35s35,15.701,35,35S70.299,86,51,86z"/>
		</g>
		<g transform="translate(182,0) scale(0.48039215686275, 0.48039215686275)">
			<path style="fill:none;" d="M51,16c-19.299,0-35,15.701-35,35s15.701,35,35,35s35-15.701,35-35S70.299,16,51,16z"/>
			<path d="M51,1C23.387,1,1,23.387,1,51s22.387,50,50,50s50-22.387,50-50S78.613,1,51,1z M51,86c-19.299,0-35-15.701-35-35s15.701-35,35-35s35,15.701,35,35S70.299,86,51,86z"/>
		</g>
		<g transform="translate(0,182) scale(0.48039215686275, 0.48039215686275)">
			<path style="fill:none;" d="M51,16c-19.299,0-35,15.701-35,35s15.701,35,35,35s35-15.701,35-35S70.299,16,51,16z"/>
			<path d="M51,1C23.387,1,1,23.387,1,51s22.387,50,50,50s50-22.387,50-50S78.613,1,51,1z M51,86c-19.299,0-35-15.701-35-35s15.701-35,35-35s35,15.701,35,35S70.299,86,51,86z"/>
		</g>
		<g transform="translate(14,14) scale(0.20588235294118, 0.20588235294118)">
			<circle cx="50" cy="50" r="50"/>
		</g>
		<g transform="translate(196,14) scale(0.20588235294118, 0.20588235294118)">
			<circle cx="50" cy="50" r="50"/>
		</g>
		<g transform="translate(14,196) scale(0.20588235294118, 0.20588235294118)">
			<circle cx="50" cy="50" r="50"/>
		</g>
	</g>
</svg>